<mxfile host="Electron" modified="2024-07-25T03:59:51.527Z" agent="Mozilla/5.0 (Windows NT 10.0; Win64; x64) AppleWebKit/537.36 (KHTML, like Gecko) draw.io/24.6.4 Chrome/124.0.6367.207 Electron/30.0.6 Safari/537.36" etag="t-NR2hAX3fDPYqBnB_DQ" version="24.6.4" type="device">
  <diagram id="C5RBs43oDa-KdzZeNtuy" name="Page-1">
    <mxGraphModel dx="1098" dy="820" grid="1" gridSize="10" guides="1" tooltips="1" connect="1" arrows="0" fold="1" page="1" pageScale="1" pageWidth="827" pageHeight="1169" math="0" shadow="0">
      <root>
        <mxCell id="WIyWlLk6GJQsqaUBKTNV-0" />
        <mxCell id="WIyWlLk6GJQsqaUBKTNV-1" parent="WIyWlLk6GJQsqaUBKTNV-0" />
        <mxCell id="GENlpJCDf5FALMrDNIW8-8" value="" style="rounded=0;whiteSpace=wrap;html=1;" parent="WIyWlLk6GJQsqaUBKTNV-1" vertex="1">
          <mxGeometry x="20" y="388" width="160" height="100" as="geometry" />
        </mxCell>
        <mxCell id="WIyWlLk6GJQsqaUBKTNV-2" value="" style="rounded=0;html=1;jettySize=auto;orthogonalLoop=1;fontSize=11;endArrow=classic;endFill=1;endSize=8;strokeWidth=1;shadow=0;labelBackgroundColor=none;movable=1;resizable=1;rotatable=1;deletable=1;editable=1;locked=0;connectable=1;exitX=0.423;exitY=1.15;exitDx=0;exitDy=0;exitPerimeter=0;startArrow=classic;startFill=1;align=center;" parent="WIyWlLk6GJQsqaUBKTNV-1" source="WIyWlLk6GJQsqaUBKTNV-3" edge="1">
          <mxGeometry x="-0.0511" y="30" relative="1" as="geometry">
            <mxPoint x="490" y="140" as="sourcePoint" />
            <mxPoint x="391" y="180" as="targetPoint" />
            <Array as="points" />
            <mxPoint as="offset" />
          </mxGeometry>
        </mxCell>
        <mxCell id="WIyWlLk6GJQsqaUBKTNV-3" value="ISP Router" style="rounded=1;whiteSpace=wrap;html=1;fontSize=12;glass=0;strokeWidth=1;shadow=0;" parent="WIyWlLk6GJQsqaUBKTNV-1" vertex="1">
          <mxGeometry x="340" y="50" width="120" height="40" as="geometry" />
        </mxCell>
        <mxCell id="GENlpJCDf5FALMrDNIW8-1" value="Router" style="rounded=1;whiteSpace=wrap;html=1;fontSize=12;glass=0;strokeWidth=1;shadow=0;" parent="WIyWlLk6GJQsqaUBKTNV-1" vertex="1">
          <mxGeometry x="340" y="180" width="120" height="40" as="geometry" />
        </mxCell>
        <mxCell id="GENlpJCDf5FALMrDNIW8-3" value="eth0 | 192.168.1.X | Put eth0 in this Point-to-Point connection in VLAN 100" style="text;html=1;align=center;verticalAlign=middle;whiteSpace=wrap;rounded=0;" parent="WIyWlLk6GJQsqaUBKTNV-1" vertex="1">
          <mxGeometry x="390" y="150" width="240" height="30" as="geometry" />
        </mxCell>
        <mxCell id="GENlpJCDf5FALMrDNIW8-6" value="eth5" style="text;html=1;align=center;verticalAlign=middle;whiteSpace=wrap;rounded=0;" parent="WIyWlLk6GJQsqaUBKTNV-1" vertex="1">
          <mxGeometry x="400" y="80" width="110" height="30" as="geometry" />
        </mxCell>
        <mxCell id="GENlpJCDf5FALMrDNIW8-7" value="Windows11 PC" style="rounded=1;whiteSpace=wrap;html=1;fontSize=12;glass=0;strokeWidth=1;shadow=0;" parent="WIyWlLk6GJQsqaUBKTNV-1" vertex="1">
          <mxGeometry x="30" y="418" width="60" height="40" as="geometry" />
        </mxCell>
        <mxCell id="GENlpJCDf5FALMrDNIW8-9" value="192.168.2.0/24" style="text;html=1;align=center;verticalAlign=middle;whiteSpace=wrap;rounded=0;" parent="WIyWlLk6GJQsqaUBKTNV-1" vertex="1">
          <mxGeometry x="20" y="358" width="120" height="30" as="geometry" />
        </mxCell>
        <mxCell id="GENlpJCDf5FALMrDNIW8-12" value="MAIN" style="text;html=1;align=center;verticalAlign=middle;whiteSpace=wrap;rounded=0;" parent="WIyWlLk6GJQsqaUBKTNV-1" vertex="1">
          <mxGeometry x="60" y="388" width="60" height="30" as="geometry" />
        </mxCell>
        <mxCell id="GENlpJCDf5FALMrDNIW8-17" value="" style="rounded=0;html=1;jettySize=auto;orthogonalLoop=1;fontSize=11;endArrow=classic;endFill=1;endSize=8;strokeWidth=1;shadow=0;labelBackgroundColor=none;movable=1;resizable=1;rotatable=1;deletable=1;editable=1;locked=0;connectable=1;exitX=0.423;exitY=1.15;exitDx=0;exitDy=0;exitPerimeter=0;startArrow=classic;startFill=1;align=center;" parent="WIyWlLk6GJQsqaUBKTNV-1" edge="1">
          <mxGeometry x="-0.0511" y="30" relative="1" as="geometry">
            <mxPoint x="391" y="96" as="sourcePoint" />
            <mxPoint x="391" y="180" as="targetPoint" />
            <Array as="points" />
            <mxPoint as="offset" />
          </mxGeometry>
        </mxCell>
        <mxCell id="GENlpJCDf5FALMrDNIW8-19" value="" style="rounded=0;html=1;jettySize=auto;orthogonalLoop=1;fontSize=11;endArrow=classic;endFill=1;endSize=8;strokeWidth=1;shadow=0;labelBackgroundColor=none;movable=1;resizable=1;rotatable=1;deletable=1;editable=1;locked=0;connectable=1;exitX=0.108;exitY=1.125;exitDx=0;exitDy=0;exitPerimeter=0;startArrow=classic;startFill=1;align=center;entryX=0.7;entryY=-0.03;entryDx=0;entryDy=0;entryPerimeter=0;" parent="WIyWlLk6GJQsqaUBKTNV-1" source="GENlpJCDf5FALMrDNIW8-1" target="GENlpJCDf5FALMrDNIW8-8" edge="1">
          <mxGeometry x="-0.0511" y="30" relative="1" as="geometry">
            <mxPoint x="399" y="220" as="sourcePoint" />
            <mxPoint x="399" y="304" as="targetPoint" />
            <Array as="points" />
            <mxPoint as="offset" />
          </mxGeometry>
        </mxCell>
        <mxCell id="GENlpJCDf5FALMrDNIW8-21" value="" style="rounded=0;whiteSpace=wrap;html=1;" parent="WIyWlLk6GJQsqaUBKTNV-1" vertex="1">
          <mxGeometry x="320" y="388" width="160" height="100" as="geometry" />
        </mxCell>
        <mxCell id="GENlpJCDf5FALMrDNIW8-22" value="RASPI" style="rounded=1;whiteSpace=wrap;html=1;fontSize=12;glass=0;strokeWidth=1;shadow=0;" parent="WIyWlLk6GJQsqaUBKTNV-1" vertex="1">
          <mxGeometry x="326.8" y="408" width="60" height="40" as="geometry" />
        </mxCell>
        <mxCell id="GENlpJCDf5FALMrDNIW8-23" value="192.168.3.0/24" style="text;html=1;align=center;verticalAlign=middle;whiteSpace=wrap;rounded=0;" parent="WIyWlLk6GJQsqaUBKTNV-1" vertex="1">
          <mxGeometry x="343.40000000000003" y="350" width="120" height="30" as="geometry" />
        </mxCell>
        <mxCell id="GENlpJCDf5FALMrDNIW8-24" value="IOT" style="text;html=1;align=center;verticalAlign=middle;whiteSpace=wrap;rounded=0;" parent="WIyWlLk6GJQsqaUBKTNV-1" vertex="1">
          <mxGeometry x="366.8" y="388" width="60" height="30" as="geometry" />
        </mxCell>
        <mxCell id="GENlpJCDf5FALMrDNIW8-26" value="" style="rounded=0;whiteSpace=wrap;html=1;" parent="WIyWlLk6GJQsqaUBKTNV-1" vertex="1">
          <mxGeometry x="610" y="370" width="160" height="100" as="geometry" />
        </mxCell>
        <mxCell id="GENlpJCDf5FALMrDNIW8-27" value="cellphone" style="rounded=1;whiteSpace=wrap;html=1;fontSize=12;glass=0;strokeWidth=1;shadow=0;" parent="WIyWlLk6GJQsqaUBKTNV-1" vertex="1">
          <mxGeometry x="620" y="400" width="60" height="40" as="geometry" />
        </mxCell>
        <mxCell id="GENlpJCDf5FALMrDNIW8-28" value="192.168.5.0/24" style="text;html=1;align=center;verticalAlign=middle;whiteSpace=wrap;rounded=0;" parent="WIyWlLk6GJQsqaUBKTNV-1" vertex="1">
          <mxGeometry x="630" y="340" width="120" height="30" as="geometry" />
        </mxCell>
        <mxCell id="GENlpJCDf5FALMrDNIW8-29" value="GUEST" style="text;html=1;align=center;verticalAlign=middle;whiteSpace=wrap;rounded=0;" parent="WIyWlLk6GJQsqaUBKTNV-1" vertex="1">
          <mxGeometry x="660" y="370" width="60" height="30" as="geometry" />
        </mxCell>
        <mxCell id="GENlpJCDf5FALMrDNIW8-34" value="" style="rounded=0;html=1;jettySize=auto;orthogonalLoop=1;fontSize=11;endArrow=classic;endFill=1;endSize=8;strokeWidth=1;shadow=0;labelBackgroundColor=none;movable=1;resizable=1;rotatable=1;deletable=1;editable=1;locked=0;connectable=1;exitX=0.5;exitY=1;exitDx=0;exitDy=0;startArrow=classic;startFill=1;align=center;entryX=0.5;entryY=0;entryDx=0;entryDy=0;" parent="WIyWlLk6GJQsqaUBKTNV-1" source="GENlpJCDf5FALMrDNIW8-1" target="GENlpJCDf5FALMrDNIW8-24" edge="1">
          <mxGeometry x="-0.0511" y="30" relative="1" as="geometry">
            <mxPoint x="559.9999999999998" y="210" as="sourcePoint" />
            <mxPoint x="400" y="370" as="targetPoint" />
            <Array as="points" />
            <mxPoint as="offset" />
          </mxGeometry>
        </mxCell>
        <mxCell id="GENlpJCDf5FALMrDNIW8-37" value="" style="rounded=0;html=1;jettySize=auto;orthogonalLoop=1;fontSize=11;endArrow=classic;endFill=1;endSize=8;strokeWidth=1;shadow=0;labelBackgroundColor=none;movable=1;resizable=1;rotatable=1;deletable=1;editable=1;locked=0;connectable=1;exitX=0.917;exitY=1.17;exitDx=0;exitDy=0;exitPerimeter=0;startArrow=classic;startFill=1;align=center;entryX=0.313;entryY=-0.213;entryDx=0;entryDy=0;entryPerimeter=0;" parent="WIyWlLk6GJQsqaUBKTNV-1" source="GENlpJCDf5FALMrDNIW8-1" edge="1">
          <mxGeometry x="-0.0511" y="30" relative="1" as="geometry">
            <mxPoint x="783" y="220" as="sourcePoint" />
            <mxPoint x="620" y="362" as="targetPoint" />
            <Array as="points" />
            <mxPoint as="offset" />
          </mxGeometry>
        </mxCell>
        <mxCell id="GENlpJCDf5FALMrDNIW8-41" value="eth5/1 WNIC | VLAN 500" style="text;html=1;align=center;verticalAlign=middle;whiteSpace=wrap;rounded=0;" parent="WIyWlLk6GJQsqaUBKTNV-1" vertex="1">
          <mxGeometry x="460" y="240" width="80" height="30" as="geometry" />
        </mxCell>
        <mxCell id="IRRxERr7y4Ga71_WiS7W-0" value="eth1, eth2 | VLAN 200" style="text;html=1;align=center;verticalAlign=middle;whiteSpace=wrap;rounded=0;" parent="WIyWlLk6GJQsqaUBKTNV-1" vertex="1">
          <mxGeometry x="240" y="240" width="113.2" height="30" as="geometry" />
        </mxCell>
        <mxCell id="IRRxERr7y4Ga71_WiS7W-1" value="eth3, eth4 | VLAN 300" style="text;html=1;align=center;verticalAlign=middle;whiteSpace=wrap;rounded=0;" parent="WIyWlLk6GJQsqaUBKTNV-1" vertex="1">
          <mxGeometry x="346.8" y="250" width="113.2" height="30" as="geometry" />
        </mxCell>
      </root>
    </mxGraphModel>
  </diagram>
</mxfile>
